PathFileType	4	(X/Y/Z)	/Users/niels/Desktop/University/Third Semester/Perception and Action/Exam/Gymnastics Motion Tracking/Code for Gym Tracking/Analyzed Data/Webcam_Backflip/id4_3_pure_Sports2D/id4_3_pure_Sports2D_px_person00.trc
DataRate	CameraRate	NumFrames	NumMarkers	Units	OrigDataRate	OrigDataStartFrame	OrigNumFrames
29.81132075471698	29.81132075471698	9	22	m	29.81132075471698	59	159
Frame#	Time	Hip			RHip			RKnee			RAnkle			RBigToe			RSmallToe			RHeel			LHip			LKnee			LAnkle			LBigToe			LSmallToe			LHeel			Neck			Head			Nose			RShoulder			RElbow			RWrist			LShoulder			LElbow			LWrist		
		X1	Y1	Z1	X2	Y2	Z2	X3	Y3	Z3	X4	Y4	Z4	X5	Y5	Z5	X6	Y6	Z6	X7	Y7	Z7	X8	Y8	Z8	X9	Y9	Z9	X10	Y10	Z10	X11	Y11	Z11	X12	Y12	Z12	X13	Y13	Z13	X14	Y14	Z14	X15	Y15	Z15	X16	Y16	Z16	X17	Y17	Z17	X18	Y18	Z18	X19	Y19	Z19	X20	Y20	Z20	X21	Y21	Z21	X22	Y22	Z22
59	1.9791139240506328	0.893639505079942	-0.6505900310886882	0.0	0.891283228187657	-0.6521619347333404	0.0	0.9175542657940259	-0.7605098242141956	0.0	0.8869397218498729	-0.8577787004303956	0.0	0.911573694988139	-0.8735864963898863	0.0	0.9045785425412824	-0.8794113121736717	0.0	0.8721275715600928	-0.8606564018868158	0.0	0.8945662500743505	-0.6500521916915173	0.0	0.9134614776994859	-0.7612217380700435	0.0	0.883275485576508	-0.8540966190947117	0.0	0.916420095476483	-0.8651145394603533	0.0	0.9073990536474607	-0.8647337592294662	0.0	0.8679107703512146	-0.8577473872672416	0.0	0.9495799436390688	-0.5096764026132152	0.0	0.9971668171079076	-0.45270922125277774	0.0	0.9868562340938446	-0.48656913030818705	0.0	0.9423667423417871	-0.517933550061665	0.0	1.0148085636820006	-0.4948075788213876	0.0	1.0707807231915871	-0.4579279593145047	0.0	0.9438064517597988	-0.5109165875288191	0.0	1.0064627332830542	-0.480444147131384	0.0	1.0483593001844425	-0.43815444302142753	0.0
60	2.0126582278481013	0.8968343964065618	-0.6699254612155223	0.0	0.8938857388869166	-0.6717476772665065	0.0	0.9197520256154436	-0.7778845205772393	0.0	0.8841436379454816	-0.8707758744552665	0.0	0.90956727008728	-0.8853983334401079	0.0	0.9016075456750792	-0.8913827359223887	0.0	0.8686919426599528	-0.8726710471265599	0.0	0.898715024156041	-0.6696281762642128	0.0	0.9177255619341255	-0.7780715239400923	0.0	0.8848464712337307	-0.8668093165308359	0.0	0.9171310453097098	-0.8764534223833923	0.0	0.907967382614307	-0.8769837159198113	0.0	0.867856651921494	-0.869046721559889	0.0	0.9397856244497778	-0.5226444345345537	0.0	0.9822400358957092	-0.4618208970766603	0.0	0.9755901022335328	-0.4964335291961389	0.0	0.933107285010467	-0.5307958081226865	0.0	1.0031996684205293	-0.49320008358950224	0.0	1.0521227566800273	-0.4453394059962197	0.0	0.9356198674918919	-0.5246387044770351	0.0	0.9963098453709116	-0.48236553315866487	0.0	1.0351049544629949	-0.43353286822539455	0.0
61	2.0462025316455694	0.8995828355047566	-0.6742900414849783	0.0	0.8958739624967356	-0.6760259586116685	0.0	0.9212096143486534	-0.7804050028137064	0.0	0.8821714181532111	-0.871693647184936	0.0	0.9091042596752319	-0.8866096734942762	0.0	0.9002128416703834	-0.8921687623424774	0.0	0.8663671529876841	-0.8746703829506072	0.0	0.9022829139363878	-0.674108426479446	0.0	0.9204096358427395	-0.7802312730811903	0.0	0.8857018030320907	-0.867907424740766	0.0	0.9171241457176454	-0.8784819625346845	0.0	0.9083374735284032	-0.8789717390940773	0.0	0.8675136131665275	-0.8705917691565258	0.0	0.9332835967931944	-0.5238376333068727	0.0	0.9716640246736933	-0.4599805281198265	0.0	0.9678812838239101	-0.49535433031780984	0.0	0.9268144165941078	-0.5318778105283386	0.0	0.99334251372767	-0.485543398451494	0.0	1.0363598026337526	-0.431610604678972	0.0	0.9307074637158806	-0.5267548813236249	0.0	0.9889327083558238	-0.4788381656835336	0.0	1.0267362969846259	-0.4273231970503424	0.0
62	2.079746835443038	0.9016623357328483	-0.6637201826137289	0.0	0.8972158197527853	-0.6652233610787154	0.0	0.922247010523265	-0.7685408152173239	0.0	0.8823038644432023	-0.8612906163409031	0.0	0.9115171055818294	-0.8778468065040824	0.0	0.9017559489486143	-0.882593243572716	0.0	0.8665772230156885	-0.8669986320871483	0.0	0.9048705424042743	-0.6635388439392542	0.0	0.9217801352305167	-0.7681166335038023	0.0	0.8866794529360067	-0.8577331179062003	0.0	0.9171404434793732	-0.8713637970248412	0.0	0.9091533573840775	-0.8708519281222281	0.0	0.8680329734549486	-0.862471070935695	0.0	0.9293859024695857	-0.5125255589419363	0.0	0.965129267181405	-0.44607690251764326	0.0	0.9633895224269365	-0.482198530119357	0.0	0.9229151416720071	-0.520399558033683	0.0	0.986740548276106	-0.4707897206582556	0.0	1.0263477764914402	-0.4155907282853593	0.0	0.9283214221772769	-0.5162599879844896	0.0	0.9849471213460443	-0.46762489532301904	0.0	1.0236902691283039	-0.4168695396290246	0.0
63	2.113291139240506	0.9030023961555499	-0.640209871180242	0.0	0.8978918415723047	-0.6414862926294244	0.0	0.92279640748097	-0.7446467378452875	0.0	0.8844925179719438	-0.8410280854085536	0.0	0.9156856350016642	-0.8603782066653811	0.0	0.9052901869233121	-0.8641320502313202	0.0	0.8692345409516571	-0.8501920186672242	0.0	0.9065351554770157	-0.6399141998177175	0.0	0.9220003063634645	-0.7440349425461008	0.0	0.888020483185596	-0.8374625198528363	0.0	0.9171444837085809	-0.8557946093322885	0.0	0.9100379878573108	-0.8536793488740083	0.0	0.8696444613610822	-0.8450477013702085	0.0	0.9274429796996722	-0.4899457016344926	0.0	0.9620258713009834	-0.4213467433447706	0.0	0.9615389551937896	-0.4580925624281585	0.0	0.9207802177129253	-0.49752822465475205	0.0	0.9836608117298183	-0.44900749348626695	0.0	1.0226775063357847	-0.39659411478234013	0.0	0.9279433912224604	-0.49415094302695123	0.0	0.9841030636597422	-0.44795461931982544	0.0	1.0253512908066913	-0.4007213089766796	0.0
64	2.1468354430379746	0.9037041796984745	-0.607187233910753	0.0	0.8979295136132638	-0.6082689922201708	0.0	0.9226841081282419	-0.7122652333979711	0.0	0.8877276262612318	-0.8130490314118569	0.0	0.9193910910236665	-0.8362876030797803	0.0	0.9087187146210798	-0.8390445732139012	0.0	0.8731680724753795	-0.825411192656884	0.0	0.9076760162086641	-0.6066694764860742	0.0	0.9212564334143394	-0.711569249795973	0.0	0.8894471525218004	-0.8091038327835527	0.0	0.9165602805180095	-0.8332340128345671	0.0	0.9100475051709251	-0.8294334813991611	0.0	0.8717097096658643	-0.819393226167479	0.0	0.9270389757536268	-0.45877362294270674	0.0	0.9615638440860831	-0.38865566528015466	0.0	0.961694332952855	-0.42580005944114113	0.0	0.9198824926464908	-0.4659472837687618	0.0	0.9833943301562446	-0.4213109256246554	0.0	1.023910805672019	-0.3743200168222407	0.0	0.9294071226840916	-0.4630743049790032	0.0	0.9858033415221353	-0.4208474735732386	0.0	1.0302887976607658	-0.37897582337730207	0.0
65	2.180379746835443	0.9039943758993283	-0.5687148543267226	0.0	0.8974802945549379	-0.5695221067827484	0.0	0.9219569570168354	-0.675212362132606	0.0	0.8906279113735515	-0.7798670056230668	0.0	0.9208246397476604	-0.8081092659137623	0.0	0.9101825610565268	-0.8099778758557203	0.0	0.876822994566264	-0.794430348482608	0.0	0.9087896962759976	-0.5678592662381319	0.0	0.9199500827466136	-0.6746323942052395	0.0	0.8903600880496142	-0.7751806640068817	0.0	0.9146011202400416	-0.8057371998376768	0.0	0.9082507277047256	-0.8006252657138921	0.0	0.8730371725210834	-0.787287538469394	0.0	0.9278532615187958	-0.42240064656042564	0.0	0.9629257302225614	-0.35149645348035674	0.0	0.9632245299146913	-0.38879897254584844	0.0	0.9197996520650712	-0.42914513599462395	0.0	0.9847210763106043	-0.3894371787530793	0.0	1.0274863201211053	-0.34864564897751726	0.0	0.9325878276579758	-0.4266053294104722	0.0	0.9893478232843925	-0.38875464892534717	0.0	1.0365876757240655	-0.35295489155790116	0.0
66	2.213924050632911	0.9041110927133421	-0.5286527177755839	0.0	0.896798356717409	-0.528925259509925	0.0	0.9209784676545185	-0.6367984666689496	0.0	0.8919951900798775	-0.7437660267201506	0.0	0.9190061985348987	-0.7779183421098942	0.0	0.9085879363752914	-0.7790386933761734	0.0	0.8788818057500873	-0.7591119932519523	0.0	0.9102007008699582	-0.5273223417175437	0.0	0.918738443052402	-0.6365612873856209	0.0	0.8900001525931149	-0.7381614542766716	0.0	0.9103593598677743	-0.7753359410995012	0.0	0.9037707665102798	-0.7695126272901441	0.0	0.8722919293730533	-0.7507271548341063	0.0	0.929500422289572	-0.38421862663135176	0.0	0.9653330124427978	-0.3131724397117163	0.0	0.9654587826672485	-0.3504525661622157	0.0	0.9201813640944956	-0.39059890169917416	0.0	0.9863120716941358	-0.35522701796973355	0.0	1.0307578582051542	-0.31970333420617486	0.0	0.9370478495273152	-0.38843276776734	0.0	0.9939370878984911	-0.3548966366329722	0.0	1.0424155280216616	-0.3247946920954103	0.0
67	2.2474683544303797	0.9042028799093654	-0.4900642709408832	0.0	0.896171164460124	-0.48943764553448676	0.0	0.9202358668801325	-0.599490651460802	0.0	0.8912043343120909	-0.7063665561980571	0.0	0.9137239589561791	-0.7466822356195914	0.0	0.9036835672326852	-0.7471934769903638	0.0	0.8787314510860577	-0.7209743227576304	0.0	0.9118800377574909	-0.48816721109665573	0.0	0.9182162946720149	-0.5997381719152425	0.0	0.8876941553232041	-0.7001291842453788	0.0	0.9031136379153828	-0.7435298516272743	0.0	0.896022345724166	-0.7375604108630254	0.0	0.8686780092226802	-0.7116627269428546	0.0	0.93156484514864	-0.347048389131978	0.0	0.9680871471875262	-0.2763750071544431	0.0	0.9677451136088565	-0.3134748636335527	0.0	0.9207560023512777	-0.3531254014310226	0.0	0.9870484783901083	-0.3202693847097136	0.0	1.03175312457471	-0.2880474664437194	0.0	0.9420153166469647	-0.3516796549605161	0.0	0.9987234415832403	-0.3225376341663336	0.0	1.0466235213209254	-0.29698006772404006	0.0
